<svg width="556" height="415" viewBox="0 0 556 415" fill="none" xmlns="http://www.w3.org/2000/svg">
<mask id="mask0_1_40" style="mask-type:alpha" maskUnits="userSpaceOnUse" x="167" y="0" width="223" height="242">
<path fill-rule="evenodd" clip-rule="evenodd" d="M284.567 1.70861C280.574 -0.569535 275.675 -0.569536 271.682 1.70861L173.783 57.5658C169.728 59.8792 167.225 64.189 167.225 68.8572V180.306C167.225 184.975 169.728 189.284 173.783 191.598L254.232 237.499C271.801 246.35 279.751 239.06 277.331 223.369C276.452 217.688 275.181 212.064 273.563 206.535C272.645 203.391 271.6 200.281 270.445 197.21C268.798 193.473 266.171 188.908 262.295 185.767C257.872 182.185 250.773 180.505 242.976 178.661C232.117 176.092 219.905 173.204 211.691 164.409C198.244 150.007 194.554 128.48 197.966 109.075C201.379 89.6703 211.033 71.9576 221.524 55.2813C223.115 66.3383 229.875 76.0467 237.893 83.8273C242.926 88.7096 248.488 92.9861 254.053 97.2644C257.353 99.8022 260.655 102.341 263.847 105.006C272.422 112.168 280.415 120.571 284.415 131.002C287.782 139.785 288.097 149.506 286.756 158.814C285.416 168.125 280.545 177.676 275.607 186.24C275.607 186.24 269.967 172.48 261.21 163.526C225.269 126.772 222.123 105.92 221.903 101.219C222.122 123.102 233.523 137.98 243.459 150.05L243.748 150.402L243.752 150.406L243.753 150.408L243.761 150.417C245.436 152.454 247.041 154.405 248.595 156.323C257.586 165.897 265.185 176.846 270.997 188.722C273.611 194.056 275.864 199.575 277.75 205.223C278.614 207.813 279.391 210.433 280.09 213.075C281.286 204.995 284.562 199.338 289.698 194.312C296.042 188.102 304.337 184.224 312.525 180.947C313.939 180.259 315.391 179.564 316.9 178.842L317.432 178.588C326.909 174.057 338.077 168.233 344.418 154.965C342.976 157.732 335.178 169.554 302.804 181.751C294.933 184.717 287.597 191.493 287.597 191.493C287.021 184.878 286.766 177.684 288.592 171.637C290.42 165.589 293.368 159.763 297.911 155.371C303.304 150.159 310.554 147.313 317.804 145.389C320.513 144.668 323.252 144.058 325.99 143.448C330.582 142.425 335.171 141.402 339.612 139.863C346.699 137.4 353.568 133.41 357.676 127.13C359.327 140.259 360.176 153.779 356.748 166.558C353.32 179.337 344.965 191.391 332.692 196.342C325.426 199.271 318.037 197.741 311.417 196.37C306.307 195.312 301.656 194.349 297.875 195.606C288.525 198.717 282.026 215.759 282.934 226.557L282.936 226.589C285.251 241.2 295.813 239.951 303.227 236.808L382.466 191.598C386.521 189.284 389.024 184.975 389.024 180.306V68.8572C389.024 64.189 386.521 59.8792 382.466 57.5658L284.567 1.70861Z" fill="white"/>
</mask>
<g mask="url(#mask0_1_40)">
<rect x="153.666" y="-487.121" width="897.895" height="897.895" fill="white"/>
</g>
<path d="M121.016 404V385.088H122.776L128.696 399.872V385.088H130.52V404H128.696L122.84 389.76V404H121.016ZM137.684 404.256C136.575 404.256 135.753 404.064 135.22 403.68C134.687 403.275 134.345 402.752 134.196 402.112C134.047 401.472 133.972 400.789 133.972 400.064V388.16H135.956V399.808C135.956 400.277 135.977 400.747 136.02 401.216C136.084 401.664 136.287 402.037 136.628 402.336C136.969 402.613 137.535 402.752 138.324 402.752C138.879 402.752 139.316 402.656 139.636 402.464C139.956 402.272 140.201 402.048 140.372 401.792C140.543 401.515 140.649 401.269 140.692 401.056V388.16H142.676V404H140.98L140.82 402.272C140.649 402.784 140.297 403.243 139.764 403.648C139.252 404.053 138.559 404.256 137.684 404.256ZM149.495 404.032C149.026 404.032 148.599 403.979 148.215 403.872C147.831 403.765 147.5 403.595 147.223 403.36C146.946 403.104 146.732 402.784 146.583 402.4C146.434 401.995 146.359 401.493 146.359 400.896V389.408H144.951V388.384L146.487 388.16L146.839 385.184H148.343V388.16H151.767V389.408H148.343V400.544C148.343 401.141 148.45 401.643 148.663 402.048C148.876 402.453 149.346 402.656 150.071 402.656C150.37 402.656 150.69 402.645 151.031 402.624C151.372 402.581 151.618 402.56 151.767 402.56V403.84C151.596 403.84 151.298 403.872 150.871 403.936C150.444 404 149.986 404.032 149.495 404.032ZM153.821 404V388.16H155.485L155.709 389.856C155.944 389.259 156.328 388.832 156.861 388.576C157.394 388.32 157.928 388.16 158.461 388.096C159.058 387.968 159.634 387.957 160.189 388.064V389.632C160.104 389.611 159.954 389.589 159.741 389.568C159.528 389.547 159.293 389.536 159.037 389.536C158.802 389.536 158.578 389.579 158.365 389.664C157.64 389.749 157.032 390.016 156.541 390.464C156.05 390.891 155.805 391.477 155.805 392.224V404H153.821ZM161.915 404V388.16H163.867V404H161.915ZM162.907 386.208C162.587 386.208 162.309 386.101 162.075 385.888C161.861 385.653 161.755 385.387 161.755 385.088C161.755 384.768 161.861 384.512 162.075 384.32C162.309 384.107 162.587 384 162.907 384C163.205 384 163.472 384.107 163.707 384.32C163.941 384.512 164.059 384.768 164.059 385.088C164.059 385.387 163.941 385.653 163.707 385.888C163.472 386.101 163.205 386.208 162.907 386.208ZM171.323 404.288C170.277 404.288 169.424 404.171 168.763 403.936C168.101 403.68 167.621 403.232 167.323 402.592C167.024 401.931 166.875 400.971 166.875 399.712V391.904C166.875 390.347 167.205 389.291 167.867 388.736C168.549 388.16 169.669 387.872 171.227 387.872C172.741 387.872 173.829 388.149 174.491 388.704C175.173 389.259 175.515 390.283 175.515 391.776V393.856H173.531V391.712C173.531 390.795 173.381 390.133 173.083 389.728C172.784 389.301 172.165 389.088 171.227 389.088C170.288 389.088 169.659 389.301 169.339 389.728C169.019 390.133 168.859 390.795 168.859 391.712V400.224C168.859 401.248 169.019 401.973 169.339 402.4C169.659 402.805 170.309 403.008 171.291 403.008C172.187 403.008 172.784 402.805 173.083 402.4C173.381 401.995 173.531 401.269 173.531 400.224V398.08H175.515V399.712C175.515 400.928 175.365 401.867 175.067 402.528C174.768 403.189 174.309 403.648 173.691 403.904C173.072 404.16 172.283 404.288 171.323 404.288ZM178.352 404V388.16H180.304V404H178.352ZM179.344 386.208C179.024 386.208 178.747 386.101 178.512 385.888C178.299 385.653 178.192 385.387 178.192 385.088C178.192 384.768 178.299 384.512 178.512 384.32C178.747 384.107 179.024 384 179.344 384C179.643 384 179.91 384.107 180.144 384.32C180.379 384.512 180.496 384.768 180.496 385.088C180.496 385.387 180.379 385.653 180.144 385.888C179.91 386.101 179.643 386.208 179.344 386.208ZM187.664 404.224C186.683 404.224 185.861 404.096 185.2 403.84C184.56 403.563 184.08 403.083 183.76 402.4C183.461 401.717 183.312 400.779 183.312 399.584V392.192C183.312 390.656 183.643 389.557 184.304 388.896C184.987 388.235 186.107 387.904 187.664 387.904C189.221 387.904 190.331 388.224 190.992 388.864C191.675 389.504 192.016 390.613 192.016 392.192V399.584C192.016 400.779 191.867 401.717 191.568 402.4C191.269 403.061 190.8 403.531 190.16 403.808C189.52 404.085 188.688 404.224 187.664 404.224ZM187.664 402.976C188.517 402.976 189.125 402.763 189.488 402.336C189.851 401.909 190.032 401.131 190.032 400V392.096C190.032 391.051 189.861 390.304 189.52 389.856C189.179 389.387 188.56 389.152 187.664 389.152C186.832 389.152 186.224 389.376 185.84 389.824C185.477 390.251 185.296 391.008 185.296 392.096V400C185.296 401.109 185.477 401.888 185.84 402.336C186.224 402.763 186.832 402.976 187.664 402.976ZM186.544 386.528L188.368 383.584H190.352L187.696 386.528H186.544ZM194.977 404V388.16H196.609L196.865 389.856C197.036 389.216 197.431 388.725 198.049 388.384C198.668 388.043 199.308 387.872 199.969 387.872C201.1 387.872 201.921 388.075 202.433 388.48C202.967 388.864 203.308 389.376 203.457 390.016C203.607 390.635 203.681 391.317 203.681 392.064V404H201.697V392.352C201.697 391.968 201.687 391.595 201.665 391.232C201.644 390.869 201.559 390.549 201.409 390.272C201.281 389.973 201.057 389.739 200.737 389.568C200.417 389.397 199.948 389.312 199.329 389.312C198.796 389.312 198.359 389.419 198.017 389.632C197.697 389.824 197.452 390.059 197.281 390.336C197.132 390.592 197.025 390.837 196.961 391.072V404H194.977ZM213.847 396.384C213.506 396.384 213.218 396.267 212.983 396.032C212.749 395.797 212.631 395.52 212.631 395.2C212.631 394.88 212.749 394.603 212.983 394.368C213.218 394.133 213.506 394.016 213.847 394.016C214.189 394.016 214.477 394.133 214.711 394.368C214.967 394.603 215.095 394.88 215.095 395.2C215.095 395.52 214.967 395.797 214.711 396.032C214.477 396.267 214.189 396.384 213.847 396.384ZM224.61 404V385.088H226.978L231.074 400.48L235.266 385.088H237.538V404H235.746V388.704L231.81 404H230.37L226.434 388.704V404H224.61ZM245.227 404.224C244.245 404.224 243.424 404.096 242.763 403.84C242.123 403.563 241.643 403.083 241.323 402.4C241.024 401.717 240.875 400.779 240.875 399.584V392.192C240.875 390.656 241.205 389.557 241.867 388.896C242.549 388.235 243.669 387.904 245.227 387.904C246.784 387.904 247.893 388.224 248.555 388.864C249.237 389.504 249.579 390.613 249.579 392.192V399.584C249.579 400.779 249.429 401.717 249.131 402.4C248.832 403.061 248.363 403.531 247.723 403.808C247.083 404.085 246.251 404.224 245.227 404.224ZM245.227 402.976C246.08 402.976 246.688 402.763 247.051 402.336C247.413 401.909 247.595 401.131 247.595 400V392.096C247.595 391.051 247.424 390.304 247.083 389.856C246.741 389.387 246.123 389.152 245.227 389.152C244.395 389.152 243.787 389.376 243.403 389.824C243.04 390.251 242.859 391.008 242.859 392.096V400C242.859 401.109 243.04 401.888 243.403 402.336C243.787 402.763 244.395 402.976 245.227 402.976ZM254.754 404L251.042 388.16H253.09L256.066 401.728H256.002L258.786 388.16H260.674L257.09 404H254.754ZM262.821 404V388.16H264.773V404H262.821ZM263.813 386.208C263.493 386.208 263.216 386.101 262.981 385.888C262.768 385.653 262.661 385.387 262.661 385.088C262.661 384.768 262.768 384.512 262.981 384.32C263.216 384.107 263.493 384 263.813 384C264.112 384 264.378 384.107 264.613 384.32C264.848 384.512 264.965 384.768 264.965 385.088C264.965 385.387 264.848 385.653 264.613 385.888C264.378 386.101 264.112 386.208 263.813 386.208ZM268.165 404V388.16H269.829L270.053 389.92C270.287 389.301 270.671 388.811 271.205 388.448C271.759 388.085 272.431 387.904 273.221 387.904C274.458 387.904 275.322 388.16 275.813 388.672C276.325 389.184 276.591 389.931 276.613 390.912L276.261 390.944C276.474 390.027 276.879 389.291 277.477 388.736C278.095 388.181 278.885 387.904 279.845 387.904C281.167 387.904 282.063 388.213 282.533 388.832C283.023 389.451 283.269 390.4 283.269 391.68V404H281.285V392.032C281.285 391.008 281.125 390.315 280.805 389.952C280.506 389.568 279.983 389.376 279.237 389.376C278.533 389.376 277.946 389.589 277.477 390.016C277.007 390.421 276.751 390.933 276.709 391.552V404H274.725V391.776C274.725 390.901 274.565 390.283 274.245 389.92C273.946 389.557 273.402 389.376 272.613 389.376C271.887 389.376 271.333 389.547 270.949 389.888C270.586 390.229 270.319 390.635 270.149 391.104V404H268.165ZM286.415 404V388.16H288.367V404H286.415ZM287.407 386.208C287.087 386.208 286.809 386.101 286.575 385.888C286.361 385.653 286.255 385.387 286.255 385.088C286.255 384.768 286.361 384.512 286.575 384.32C286.809 384.107 287.087 384 287.407 384C287.705 384 287.972 384.107 288.207 384.32C288.441 384.512 288.559 384.768 288.559 385.088C288.559 385.387 288.441 385.653 288.207 385.888C287.972 386.101 287.705 386.208 287.407 386.208ZM295.855 404.288C294.788 404.288 293.924 404.171 293.263 403.936C292.601 403.68 292.121 403.221 291.823 402.56C291.524 401.899 291.375 400.939 291.375 399.68V391.776C291.375 390.283 291.705 389.259 292.367 388.704C293.049 388.149 294.169 387.872 295.727 387.872C297.241 387.872 298.329 388.149 298.991 388.704C299.673 389.259 300.015 390.283 300.015 391.776V395.872H293.359V400.352C293.359 401.376 293.519 402.091 293.839 402.496C294.159 402.88 294.809 403.072 295.791 403.072C296.687 403.072 297.284 402.88 297.583 402.496C297.881 402.112 298.031 401.397 298.031 400.352V398.304H300.015V399.648C300.015 400.885 299.865 401.845 299.567 402.528C299.268 403.189 298.809 403.648 298.191 403.904C297.593 404.16 296.815 404.288 295.855 404.288ZM293.359 394.848H298.031V391.712C298.031 390.816 297.881 390.165 297.583 389.76C297.284 389.355 296.665 389.152 295.727 389.152C294.788 389.152 294.159 389.355 293.839 389.76C293.519 390.165 293.359 390.816 293.359 391.712V394.848ZM302.852 404V388.16H304.484L304.74 389.856C304.911 389.216 305.306 388.725 305.924 388.384C306.543 388.043 307.183 387.872 307.844 387.872C308.975 387.872 309.796 388.075 310.308 388.48C310.842 388.864 311.183 389.376 311.332 390.016C311.482 390.635 311.556 391.317 311.556 392.064V404H309.572V392.352C309.572 391.968 309.562 391.595 309.54 391.232C309.519 390.869 309.434 390.549 309.284 390.272C309.156 389.973 308.932 389.739 308.612 389.568C308.292 389.397 307.823 389.312 307.204 389.312C306.671 389.312 306.234 389.419 305.892 389.632C305.572 389.824 305.327 390.059 305.156 390.336C305.007 390.592 304.9 390.837 304.836 391.072V404H302.852ZM318.12 404.032C317.651 404.032 317.224 403.979 316.84 403.872C316.456 403.765 316.125 403.595 315.848 403.36C315.571 403.104 315.357 402.784 315.208 402.4C315.059 401.995 314.984 401.493 314.984 400.896V389.408H313.576V388.384L315.112 388.16L315.464 385.184H316.968V388.16H320.392V389.408H316.968V400.544C316.968 401.141 317.075 401.643 317.288 402.048C317.501 402.453 317.971 402.656 318.696 402.656C318.995 402.656 319.315 402.645 319.656 402.624C319.997 402.581 320.243 402.56 320.392 402.56V403.84C320.221 403.84 319.923 403.872 319.496 403.936C319.069 404 318.611 404.032 318.12 404.032ZM326.383 404.224C325.401 404.224 324.58 404.096 323.919 403.84C323.279 403.563 322.799 403.083 322.479 402.4C322.18 401.717 322.031 400.779 322.031 399.584V392.192C322.031 390.656 322.361 389.557 323.023 388.896C323.705 388.235 324.825 387.904 326.383 387.904C327.94 387.904 329.049 388.224 329.711 388.864C330.393 389.504 330.735 390.613 330.735 392.192V399.584C330.735 400.779 330.585 401.717 330.287 402.4C329.988 403.061 329.519 403.531 328.879 403.808C328.239 404.085 327.407 404.224 326.383 404.224ZM326.383 402.976C327.236 402.976 327.844 402.763 328.207 402.336C328.569 401.909 328.751 401.131 328.751 400V392.096C328.751 391.051 328.58 390.304 328.239 389.856C327.897 389.387 327.279 389.152 326.383 389.152C325.551 389.152 324.943 389.376 324.559 389.824C324.196 390.251 324.015 391.008 324.015 392.096V400C324.015 401.109 324.196 401.888 324.559 402.336C324.943 402.763 325.551 402.976 326.383 402.976ZM340.722 396.384C340.381 396.384 340.093 396.267 339.858 396.032C339.624 395.797 339.506 395.52 339.506 395.2C339.506 394.88 339.624 394.603 339.858 394.368C340.093 394.133 340.381 394.016 340.722 394.016C341.064 394.016 341.352 394.133 341.586 394.368C341.842 394.603 341.97 394.88 341.97 395.2C341.97 395.52 341.842 395.797 341.586 396.032C341.352 396.267 341.064 396.384 340.722 396.384ZM351.485 404V385.088H359.645V386.528H353.565V393.312H358.429V394.912H353.565V402.56H359.645V404H351.485ZM368.438 407.712V402.272C368.268 402.805 367.926 403.275 367.414 403.68C366.924 404.085 366.252 404.288 365.398 404.288C364.652 404.288 364.033 404.192 363.542 404C363.073 403.787 362.7 403.488 362.422 403.104C362.166 402.72 361.985 402.251 361.878 401.696C361.772 401.141 361.718 400.512 361.718 399.808V391.936C361.718 391.339 361.772 390.805 361.878 390.336C362.006 389.845 362.209 389.429 362.486 389.088C362.764 388.725 363.137 388.448 363.606 388.256C364.076 388.064 364.673 387.968 365.398 387.968C366.38 387.968 367.084 388.128 367.51 388.448C367.958 388.747 368.268 389.088 368.438 389.472L368.566 388.16H370.422V407.712H368.438ZM366.07 403.072C366.604 403.072 367.03 402.955 367.35 402.72C367.67 402.464 367.905 402.165 368.054 401.824C368.225 401.461 368.332 401.109 368.374 400.768C368.417 400.405 368.438 400.107 368.438 399.872V392.64C368.438 392.277 368.417 391.893 368.374 391.488C368.353 391.083 368.268 390.709 368.118 390.368C367.99 390.005 367.766 389.717 367.446 389.504C367.126 389.291 366.668 389.184 366.07 389.184C365.452 389.184 364.982 389.269 364.662 389.44C364.342 389.611 364.108 389.845 363.958 390.144C363.83 390.443 363.756 390.773 363.734 391.136C363.713 391.477 363.702 391.851 363.702 392.256V400.032C363.702 400.437 363.713 400.821 363.734 401.184C363.756 401.547 363.83 401.867 363.958 402.144C364.108 402.421 364.342 402.645 364.662 402.816C364.982 402.987 365.452 403.072 366.07 403.072ZM377.278 404.256C376.168 404.256 375.347 404.064 374.814 403.68C374.28 403.275 373.939 402.752 373.79 402.112C373.64 401.472 373.566 400.789 373.566 400.064V388.16H375.55V399.808C375.55 400.277 375.571 400.747 375.614 401.216C375.678 401.664 375.88 402.037 376.222 402.336C376.563 402.613 377.128 402.752 377.918 402.752C378.472 402.752 378.91 402.656 379.23 402.464C379.55 402.272 379.795 402.048 379.966 401.792C380.136 401.515 380.243 401.269 380.286 401.056V388.16H382.27V404H380.574L380.414 402.272C380.243 402.784 379.891 403.243 379.358 403.648C378.846 404.053 378.152 404.256 377.278 404.256ZM385.665 404V388.16H387.617V404H385.665ZM386.657 386.208C386.337 386.208 386.059 386.101 385.825 385.888C385.611 385.653 385.505 385.387 385.505 385.088C385.505 384.768 385.611 384.512 385.825 384.32C386.059 384.107 386.337 384 386.657 384C386.955 384 387.222 384.107 387.457 384.32C387.691 384.512 387.809 384.768 387.809 385.088C387.809 385.387 387.691 385.653 387.457 385.888C387.222 386.101 386.955 386.208 386.657 386.208ZM391.009 404V383.712H392.961V404H391.009ZM396.352 404V388.16H398.304V404H396.352ZM397.344 386.208C397.024 386.208 396.747 386.101 396.512 385.888C396.299 385.653 396.192 385.387 396.192 385.088C396.192 384.768 396.299 384.512 396.512 384.32C396.747 384.107 397.024 384 397.344 384C397.643 384 397.91 384.107 398.144 384.32C398.379 384.512 398.496 384.768 398.496 385.088C398.496 385.387 398.379 385.653 398.144 385.888C397.91 386.101 397.643 386.208 397.344 386.208ZM406.4 404.224C405.397 404.224 404.651 404.053 404.16 403.712C403.691 403.349 403.371 402.955 403.2 402.528L403.104 404H401.696V383.84H403.648V389.472C403.904 388.939 404.277 388.544 404.768 388.288C405.28 388.011 405.92 387.872 406.688 387.872C407.499 387.872 408.181 388 408.736 388.256C409.291 388.512 409.707 388.928 409.984 389.504C410.261 390.08 410.4 390.88 410.4 391.904V399.744C410.4 400.619 410.315 401.344 410.144 401.92C409.995 402.496 409.76 402.955 409.44 403.296C409.12 403.637 408.704 403.872 408.192 404C407.701 404.149 407.104 404.224 406.4 404.224ZM406.048 402.816C406.645 402.816 407.115 402.731 407.456 402.56C407.797 402.389 408.043 402.101 408.192 401.696C408.341 401.269 408.416 400.683 408.416 399.936V391.968C408.416 390.901 408.235 390.176 407.872 389.792C407.531 389.408 406.923 389.216 406.048 389.216C405.152 389.216 404.533 389.44 404.192 389.888C403.851 390.336 403.68 390.987 403.68 391.84V399.744C403.68 400.832 403.861 401.621 404.224 402.112C404.608 402.581 405.216 402.816 406.048 402.816ZM413.384 404V388.16H415.048L415.272 389.856C415.506 389.259 415.89 388.832 416.424 388.576C416.957 388.32 417.49 388.16 418.024 388.096C418.621 387.968 419.197 387.957 419.752 388.064V389.632C419.666 389.611 419.517 389.589 419.304 389.568C419.09 389.547 418.856 389.536 418.6 389.536C418.365 389.536 418.141 389.579 417.928 389.664C417.202 389.749 416.594 390.016 416.104 390.464C415.613 390.891 415.368 391.477 415.368 392.224V404H413.384ZM421.477 404V388.16H423.429V404H421.477ZM422.469 386.208C422.149 386.208 421.872 386.101 421.637 385.888C421.424 385.653 421.317 385.387 421.317 385.088C421.317 384.768 421.424 384.512 421.637 384.32C421.872 384.107 422.149 384 422.469 384C422.768 384 423.035 384.107 423.269 384.32C423.504 384.512 423.621 384.768 423.621 385.088C423.621 385.387 423.504 385.653 423.269 385.888C423.035 386.101 422.768 386.208 422.469 386.208ZM430.789 404.224C429.808 404.224 428.986 404.096 428.325 403.84C427.685 403.563 427.205 403.083 426.885 402.4C426.586 401.717 426.437 400.779 426.437 399.584V392.192C426.437 390.656 426.768 389.557 427.429 388.896C428.112 388.235 429.232 387.904 430.789 387.904C432.346 387.904 433.456 388.224 434.117 388.864C434.8 389.504 435.141 390.613 435.141 392.192V399.584C435.141 400.779 434.992 401.717 434.693 402.4C434.394 403.061 433.925 403.531 433.285 403.808C432.645 404.085 431.813 404.224 430.789 404.224ZM430.789 402.976C431.642 402.976 432.25 402.763 432.613 402.336C432.976 401.909 433.157 401.131 433.157 400V392.096C433.157 391.051 432.986 390.304 432.645 389.856C432.304 389.387 431.685 389.152 430.789 389.152C429.957 389.152 429.349 389.376 428.965 389.824C428.602 390.251 428.421 391.008 428.421 392.096V400C428.421 401.109 428.602 401.888 428.965 402.336C429.349 402.763 429.957 402.976 430.789 402.976Z" fill="white"/>
<path d="M527.16 334.158C528.56 334.158 530.083 334.034 531.731 333.787C533.46 333.458 534.737 333.046 535.56 332.552V322.669L526.666 323.41C524.36 323.575 522.465 324.069 520.983 324.892C519.501 325.716 518.759 326.951 518.759 328.599C518.759 330.246 519.377 331.605 520.612 332.675C521.93 333.664 524.113 334.158 527.16 334.158ZM526.172 285.608C530.619 285.608 534.654 286.061 538.278 286.967C541.984 287.873 545.114 289.273 547.667 291.167C550.302 292.979 552.32 295.326 553.72 298.209C555.12 301.009 555.82 304.344 555.82 308.215V335.887C555.82 338.028 555.202 339.799 553.967 341.199C552.814 342.517 551.414 343.67 549.767 344.658C544.414 347.87 536.878 349.476 527.16 349.476C522.795 349.476 518.842 349.064 515.3 348.241C511.841 347.417 508.835 346.182 506.282 344.535C503.812 342.888 501.876 340.787 500.476 338.234C499.158 335.681 498.499 332.716 498.499 329.34C498.499 323.657 500.188 319.292 503.564 316.245C506.941 313.198 512.171 311.304 519.253 310.562L535.437 308.833V307.968C535.437 305.58 534.366 303.891 532.225 302.903C530.166 301.832 527.16 301.297 523.207 301.297C520.077 301.297 517.03 301.627 514.065 302.285C511.1 302.944 508.424 303.768 506.035 304.756C504.965 304.015 504.059 302.903 503.317 301.421C502.576 299.856 502.206 298.25 502.206 296.603C502.206 294.461 502.7 292.773 503.688 291.538C504.759 290.22 506.365 289.108 508.506 288.202C510.894 287.296 513.694 286.638 516.906 286.226C520.201 285.814 523.289 285.608 526.172 285.608Z" fill="white"/>
<path d="M474.873 302.162C472.814 302.162 470.838 302.491 468.943 303.15C467.132 303.809 465.526 304.797 464.125 306.115C462.808 307.35 461.737 308.915 460.914 310.809C460.09 312.704 459.678 314.927 459.678 317.48C459.678 322.586 461.119 326.416 464.002 328.969C466.967 331.522 470.549 332.799 474.75 332.799C477.22 332.799 479.362 332.511 481.173 331.934C482.985 331.358 484.591 330.74 485.991 330.081C487.638 331.234 488.874 332.511 489.697 333.911C490.521 335.228 490.933 336.834 490.933 338.728C490.933 342.105 489.327 344.741 486.115 346.635C482.903 348.447 478.456 349.353 472.773 349.353C467.585 349.353 462.89 348.611 458.69 347.129C454.49 345.564 450.866 343.423 447.819 340.705C444.854 337.905 442.548 334.569 440.901 330.699C439.254 326.828 438.43 322.545 438.43 317.851C438.43 312.415 439.295 307.68 441.024 303.644C442.836 299.526 445.266 296.15 448.313 293.514C451.36 290.879 454.86 288.902 458.813 287.585C462.849 286.267 467.09 285.608 471.538 285.608C477.467 285.608 482.038 286.679 485.25 288.82C488.462 290.961 490.068 293.72 490.068 297.097C490.068 298.662 489.697 300.144 488.956 301.544C488.215 302.862 487.35 304.015 486.362 305.003C484.962 304.344 483.274 303.727 481.297 303.15C479.32 302.491 477.179 302.162 474.873 302.162Z" fill="white"/>
<path d="M404.974 349.476C400.114 349.476 395.585 348.817 391.385 347.5C387.267 346.099 383.643 344.041 380.513 341.323C377.466 338.605 375.037 335.187 373.225 331.069C371.495 326.951 370.631 322.134 370.631 316.616C370.631 311.18 371.495 306.527 373.225 302.656C375.037 298.703 377.384 295.491 380.266 293.02C383.149 290.467 386.443 288.614 390.149 287.461C393.855 286.226 397.644 285.608 401.514 285.608C405.879 285.608 409.833 286.267 413.374 287.585C416.998 288.902 420.086 290.714 422.639 293.02C425.275 295.326 427.292 298.085 428.692 301.297C430.175 304.509 430.916 308.009 430.916 311.798C430.916 314.598 430.134 316.739 428.569 318.222C427.004 319.704 424.822 320.651 422.021 321.063L391.508 325.634C392.414 328.351 394.267 330.41 397.067 331.81C399.867 333.128 403.079 333.787 406.703 333.787C410.08 333.787 413.25 333.375 416.215 332.552C419.262 331.646 421.733 330.616 423.627 329.463C424.945 330.287 426.057 331.44 426.963 332.922C427.869 334.405 428.322 335.97 428.322 337.617C428.322 341.323 426.592 344.082 423.133 345.894C420.498 347.294 417.533 348.241 414.239 348.735C410.944 349.229 407.856 349.476 404.974 349.476ZM401.514 300.927C399.538 300.927 397.808 301.256 396.326 301.915C394.926 302.574 393.773 303.438 392.867 304.509C391.961 305.497 391.261 306.65 390.767 307.968C390.355 309.203 390.108 310.48 390.026 311.798L411.15 308.339C410.903 306.692 409.997 305.044 408.433 303.397C406.868 301.75 404.562 300.927 401.514 300.927Z" fill="white"/>
<path d="M345.486 326.869C345.486 329.01 346.145 330.534 347.462 331.44C348.863 332.346 350.798 332.799 353.269 332.799C354.504 332.799 355.781 332.716 357.098 332.552C358.416 332.305 359.569 332.016 360.557 331.687C361.298 332.593 361.916 333.622 362.41 334.775C362.987 335.846 363.275 337.164 363.275 338.728C363.275 341.858 362.081 344.411 359.692 346.388C357.386 348.364 353.269 349.353 347.339 349.353C340.091 349.353 334.491 347.705 330.538 344.411C326.667 341.117 324.732 335.764 324.732 328.351V275.478C325.638 275.231 326.914 274.984 328.561 274.737C330.291 274.407 332.103 274.243 333.997 274.243C337.621 274.243 340.421 274.902 342.397 276.219C344.456 277.455 345.486 280.131 345.486 284.249V292.155H361.669C362.163 293.061 362.616 294.214 363.028 295.614C363.522 296.932 363.769 298.415 363.769 300.062C363.769 302.944 363.11 305.044 361.793 306.362C360.557 307.597 358.869 308.215 356.728 308.215H345.486V326.869Z" fill="white"/>
<path d="M314.24 317.48C314.24 322.586 313.458 327.157 311.893 331.193C310.328 335.146 308.104 338.481 305.222 341.199C302.422 343.917 299.045 345.976 295.092 347.376C291.139 348.776 286.733 349.476 281.874 349.476C277.014 349.476 272.608 348.735 268.655 347.252C264.702 345.77 261.284 343.67 258.402 340.952C255.602 338.152 253.419 334.775 251.854 330.822C250.29 326.869 249.507 322.422 249.507 317.48C249.507 312.621 250.29 308.215 251.854 304.262C253.419 300.309 255.602 296.973 258.402 294.256C261.284 291.455 264.702 289.314 268.655 287.832C272.608 286.349 277.014 285.608 281.874 285.608C286.733 285.608 291.139 286.39 295.092 287.955C299.045 289.438 302.422 291.579 305.222 294.379C308.104 297.097 310.328 300.432 311.893 304.386C313.458 308.339 314.24 312.704 314.24 317.48ZM271.002 317.48C271.002 322.504 271.95 326.375 273.844 329.093C275.82 331.728 278.538 333.046 281.997 333.046C285.456 333.046 288.092 331.687 289.903 328.969C291.798 326.251 292.745 322.422 292.745 317.48C292.745 312.539 291.798 308.75 289.903 306.115C288.009 303.397 285.333 302.038 281.874 302.038C278.415 302.038 275.738 303.397 273.844 306.115C271.95 308.75 271.002 312.539 271.002 317.48Z" fill="white"/>
<path d="M224.606 347.376C223.782 347.623 222.464 347.87 220.653 348.117C218.923 348.364 217.111 348.488 215.217 348.488C213.405 348.488 211.758 348.364 210.276 348.117C208.875 347.87 207.681 347.376 206.693 346.635C205.705 345.894 204.922 344.905 204.346 343.67C203.852 342.352 203.605 340.664 203.605 338.605V301.544C203.605 299.65 203.934 298.044 204.593 296.726C205.334 295.326 206.364 294.091 207.681 293.02C208.999 291.95 210.605 291.002 212.499 290.179C214.476 289.273 216.576 288.491 218.799 287.832C221.023 287.173 223.329 286.679 225.717 286.349C228.106 285.937 230.494 285.732 232.883 285.732C236.836 285.732 239.965 286.514 242.271 288.079C244.577 289.561 245.73 292.032 245.73 295.491C245.73 296.644 245.566 297.797 245.236 298.95C244.907 300.021 244.495 301.009 244.001 301.915C242.271 301.915 240.501 301.997 238.689 302.162C236.877 302.327 235.106 302.574 233.377 302.903C231.647 303.232 230 303.603 228.435 304.015C226.953 304.344 225.676 304.756 224.606 305.25V347.376Z" fill="white"/>
<path d="M175.143 326.869C175.143 329.01 175.802 330.534 177.12 331.44C178.52 332.346 180.455 332.799 182.926 332.799C184.161 332.799 185.438 332.716 186.755 332.552C188.073 332.305 189.226 332.016 190.214 331.687C190.956 332.593 191.573 333.622 192.067 334.775C192.644 335.846 192.932 337.164 192.932 338.728C192.932 341.858 191.738 344.411 189.35 346.388C187.044 348.364 182.926 349.353 176.996 349.353C169.749 349.353 164.148 347.705 160.195 344.411C156.324 341.117 154.389 335.764 154.389 328.351V275.478C155.295 275.231 156.571 274.984 158.219 274.737C159.948 274.407 161.76 274.243 163.654 274.243C167.278 274.243 170.078 274.902 172.055 276.219C174.114 277.455 175.143 280.131 175.143 284.249V292.155H191.326C191.82 293.061 192.273 294.214 192.685 295.614C193.179 296.932 193.426 298.415 193.426 300.062C193.426 302.944 192.767 305.044 191.45 306.362C190.214 307.597 188.526 308.215 186.385 308.215H175.143V326.869Z" fill="white"/>
<path d="M82.2385 288.326C83.0621 288.079 84.3386 287.832 86.0681 287.585C87.88 287.337 89.733 287.214 91.6272 287.214C93.4391 287.214 95.0451 287.337 96.4451 287.585C97.9276 287.832 99.1629 288.326 100.151 289.067C101.139 289.808 101.881 290.838 102.375 292.155C102.951 293.391 103.24 295.038 103.24 297.097V323.657C103.24 327.034 104.063 329.463 105.71 330.946C107.357 332.346 109.746 333.046 112.875 333.046C114.77 333.046 116.293 332.881 117.446 332.552C118.682 332.222 119.629 331.893 120.288 331.563V288.326C121.111 288.079 122.388 287.832 124.117 287.585C125.929 287.337 127.782 287.214 129.676 287.214C131.488 287.214 133.094 287.337 134.494 287.585C135.977 287.832 137.212 288.326 138.2 289.067C139.189 289.808 139.93 290.838 140.424 292.155C141 293.391 141.289 295.038 141.289 297.097V334.652C141.289 338.77 139.559 341.858 136.1 343.917C133.218 345.729 129.759 347.088 125.723 347.994C121.77 348.982 117.446 349.476 112.752 349.476C108.305 349.476 104.187 348.982 100.398 347.994C96.6922 347.005 93.4803 345.482 90.7625 343.423C88.0447 341.364 85.9446 338.728 84.4622 335.516C82.9797 332.222 82.2385 328.269 82.2385 323.657V288.326Z" fill="white"/>
<path d="M67.8212 344.905C66.6682 346.058 64.9799 346.923 62.7562 347.5C60.6149 348.158 58.0207 348.488 54.9735 348.488C51.9262 348.488 49.0437 348.035 46.326 347.129C43.6082 346.223 41.3845 344.041 39.655 340.582L27.425 315.627C26.1896 313.074 25.0778 310.686 24.0895 308.462C23.1012 306.156 22.0306 303.521 20.8776 300.556L20.1363 300.679C20.4658 305.127 20.6305 309.656 20.6305 314.268C20.7128 318.88 20.754 323.41 20.754 327.857V347.005C19.8481 347.252 18.448 347.5 16.5538 347.747C14.7419 347.994 12.9301 348.117 11.1182 348.117C9.30637 348.117 7.7004 347.994 6.30033 347.747C4.90026 347.5 3.74725 347.005 2.84133 346.264C1.9354 345.523 1.23536 344.535 0.741215 343.299C0.247071 341.982 0 340.293 0 338.234V276.466C1.153 274.819 2.92368 273.584 5.31204 272.76C7.7004 271.937 10.2535 271.525 12.9713 271.525C16.0185 271.525 18.901 272.019 21.6188 273.007C24.4189 273.913 26.6426 276.055 28.2897 279.431L40.6433 304.386C41.8787 306.939 42.9905 309.368 43.9788 311.674C44.9671 313.898 46.0377 316.492 47.1907 319.457L47.8084 319.333C47.479 314.886 47.2731 310.439 47.1907 305.992C47.1083 301.544 47.0672 297.097 47.0672 292.65V272.637C47.9731 272.39 49.332 272.143 51.1439 271.896C53.0381 271.649 54.8911 271.525 56.703 271.525C60.3267 271.525 63.0856 272.184 64.9799 273.502C66.8741 274.737 67.8212 277.372 67.8212 281.408V344.905Z" fill="white"/>
</svg>
